<svg width="236" height="80" viewBox="0 0 236 80" fill="none" xmlns="http://www.w3.org/2000/svg">
<g clip-path="url(#clip0_111_309)">
<path d="M40 80C62.0914 80 80 62.0914 80 40C80 17.9086 62.0914 0 40 0C17.9086 0 0 17.9086 0 40C0 62.0914 17.9086 80 40 80Z" fill="#1ED760"/>
<path fill-rule="evenodd" clip-rule="evenodd" d="M32.786 19.9655C33.1446 20.1808 33.3879 20.5535 33.3889 20.9719C33.3909 21.8636 33.2243 22.8149 32.8153 23.7833C32.0808 25.5228 30.5142 27.4351 27.5238 29.1984C26.6805 29.6957 25.6621 29.0447 25.6789 28.0657L25.8492 18.1079C25.8666 17.0929 26.9762 16.4773 27.8464 16.9999L32.786 19.9655ZM37.4099 22.7416C36.5658 22.2348 35.4602 22.8033 35.1677 23.7434C35.0754 24.0399 34.9666 24.3385 34.84 24.6383C33.6787 27.3883 31.0916 30.0755 26.376 32.2771C25.9076 32.4958 25.5952 32.958 25.5864 33.4749L25.4747 39.9988C25.4559 41.1006 26.7154 41.7366 27.5859 41.0608C31.7518 37.8268 36.0073 34.3528 39.2482 31.3693C40.5944 30.1302 41.7522 28.9877 42.6508 27.9912C42.7371 27.8956 42.8204 27.8018 42.9009 27.71C43.4129 27.1256 43.2382 26.2408 42.5721 25.8409L37.4099 22.7416ZM46.7512 28.3501C46.1609 27.9955 45.3978 28.1567 44.9573 28.6864C44.7459 28.9408 44.52 29.2001 44.2831 29.463C43.322 30.5287 42.1104 31.7219 40.7368 32.9863C36.6361 36.7611 30.9737 41.2792 25.8931 45.1284C25.5696 45.3736 25.3763 45.7534 25.3694 46.1591L25.3017 50.1134C25.2856 51.0589 26.2434 51.7117 27.1135 51.3415C38.2527 46.6018 44.425 41.9224 47.5965 37.9633C49.7037 35.3325 50.4624 33.0661 50.5235 31.294C50.5384 30.8638 50.2923 30.476 49.9231 30.2544L46.7512 28.3501ZM54.4787 32.9895C53.6474 32.4903 52.5565 33.031 52.2773 33.9597C51.7749 35.6306 50.8281 37.4445 49.3116 39.3374C45.625 43.9397 38.5161 49.1222 25.9086 54.2202C25.4983 54.3864 25.2219 54.782 25.2143 55.2246C25.2023 55.9275 25.8437 56.4607 26.5314 56.3152C34.9516 54.5328 44.7336 52.0321 52.7978 49.1328C52.8642 49.109 52.9279 49.08 52.9899 49.0457L65.6659 42.0132C66.5538 41.5208 66.5754 40.252 65.705 39.7295L54.4787 32.9895ZM33.2114 60.018C34.5812 59.258 33.665 56.967 32.1392 57.3218C30.1009 57.7952 28.1049 58.2334 26.1884 58.6325C25.5833 58.7587 25.1448 59.2862 25.1343 59.9042L25.094 62.2593C25.0766 63.2743 26.1645 63.9275 27.0522 63.4347L33.2114 60.018Z" fill="white"/>
</g>
<path d="M105.992 49V32.2H109.208L116.36 44.056H114.656L121.688 32.2H124.88L124.928 49H121.28L121.256 37.792H121.928L116.312 47.224H114.56L108.824 37.792H109.64V49H105.992ZM134.794 49.192C133.418 49.192 132.194 48.904 131.122 48.328C130.066 47.752 129.226 46.968 128.602 45.976C127.994 44.968 127.69 43.824 127.69 42.544C127.69 41.248 127.994 40.104 128.602 39.112C129.226 38.104 130.066 37.32 131.122 36.76C132.194 36.184 133.418 35.896 134.794 35.896C136.154 35.896 137.37 36.184 138.442 36.76C139.514 37.32 140.354 38.096 140.962 39.088C141.57 40.08 141.874 41.232 141.874 42.544C141.874 43.824 141.57 44.968 140.962 45.976C140.354 46.968 139.514 47.752 138.442 48.328C137.37 48.904 136.154 49.192 134.794 49.192ZM134.794 46.12C135.418 46.12 135.978 45.976 136.474 45.688C136.97 45.4 137.362 44.992 137.65 44.464C137.938 43.92 138.082 43.28 138.082 42.544C138.082 41.792 137.938 41.152 137.65 40.624C137.362 40.096 136.97 39.688 136.474 39.4C135.978 39.112 135.418 38.968 134.794 38.968C134.17 38.968 133.61 39.112 133.114 39.4C132.618 39.688 132.218 40.096 131.914 40.624C131.626 41.152 131.482 41.792 131.482 42.544C131.482 43.28 131.626 43.92 131.914 44.464C132.218 44.992 132.618 45.4 133.114 45.688C133.61 45.976 134.17 46.12 134.794 46.12ZM150.52 49.192C149.144 49.192 147.92 48.904 146.848 48.328C145.792 47.752 144.952 46.968 144.328 45.976C143.72 44.968 143.416 43.824 143.416 42.544C143.416 41.248 143.72 40.104 144.328 39.112C144.952 38.104 145.792 37.32 146.848 36.76C147.92 36.184 149.144 35.896 150.52 35.896C151.88 35.896 153.096 36.184 154.168 36.76C155.24 37.32 156.08 38.096 156.688 39.088C157.296 40.08 157.6 41.232 157.6 42.544C157.6 43.824 157.296 44.968 156.688 45.976C156.08 46.968 155.24 47.752 154.168 48.328C153.096 48.904 151.88 49.192 150.52 49.192ZM150.52 46.12C151.144 46.12 151.704 45.976 152.2 45.688C152.696 45.4 153.088 44.992 153.376 44.464C153.664 43.92 153.808 43.28 153.808 42.544C153.808 41.792 153.664 41.152 153.376 40.624C153.088 40.096 152.696 39.688 152.2 39.4C151.704 39.112 151.144 38.968 150.52 38.968C149.896 38.968 149.336 39.112 148.84 39.4C148.344 39.688 147.944 40.096 147.64 40.624C147.352 41.152 147.208 41.792 147.208 42.544C147.208 43.28 147.352 43.92 147.64 44.464C147.944 44.992 148.344 45.4 148.84 45.688C149.336 45.976 149.896 46.12 150.52 46.12ZM165.647 49.192C164.431 49.192 163.335 48.92 162.359 48.376C161.383 47.816 160.607 47.04 160.031 46.048C159.471 45.056 159.191 43.888 159.191 42.544C159.191 41.184 159.471 40.008 160.031 39.016C160.607 38.024 161.383 37.256 162.359 36.712C163.335 36.168 164.431 35.896 165.647 35.896C166.735 35.896 167.687 36.136 168.503 36.616C169.319 37.096 169.951 37.824 170.399 38.8C170.847 39.776 171.071 41.024 171.071 42.544C171.071 44.048 170.855 45.296 170.423 46.288C169.991 47.264 169.367 47.992 168.551 48.472C167.751 48.952 166.783 49.192 165.647 49.192ZM166.295 46.12C166.903 46.12 167.455 45.976 167.951 45.688C168.447 45.4 168.839 44.992 169.127 44.464C169.431 43.92 169.583 43.28 169.583 42.544C169.583 41.792 169.431 41.152 169.127 40.624C168.839 40.096 168.447 39.688 167.951 39.4C167.455 39.112 166.903 38.968 166.295 38.968C165.671 38.968 165.111 39.112 164.615 39.4C164.119 39.688 163.719 40.096 163.415 40.624C163.127 41.152 162.983 41.792 162.983 42.544C162.983 43.28 163.127 43.92 163.415 44.464C163.719 44.992 164.119 45.4 164.615 45.688C165.111 45.976 165.671 46.12 166.295 46.12ZM169.679 49V46.36L169.751 42.52L169.511 38.704V31.192H173.255V49H169.679ZM182.504 49.288C181.16 49.288 179.872 49.112 178.64 48.76C177.408 48.392 176.416 47.92 175.664 47.344L176.984 44.416C177.704 44.928 178.552 45.352 179.528 45.688C180.52 46.008 181.52 46.168 182.528 46.168C183.296 46.168 183.912 46.096 184.376 45.952C184.856 45.792 185.208 45.576 185.432 45.304C185.656 45.032 185.768 44.72 185.768 44.368C185.768 43.92 185.592 43.568 185.24 43.312C184.888 43.04 184.424 42.824 183.848 42.664C183.272 42.488 182.632 42.328 181.928 42.184C181.24 42.024 180.544 41.832 179.84 41.608C179.152 41.384 178.52 41.096 177.944 40.744C177.368 40.392 176.896 39.928 176.528 39.352C176.176 38.776 176 38.04 176 37.144C176 36.184 176.256 35.312 176.768 34.528C177.296 33.728 178.08 33.096 179.12 32.632C180.176 32.152 181.496 31.912 183.08 31.912C184.136 31.912 185.176 32.04 186.2 32.296C187.224 32.536 188.128 32.904 188.912 33.4L187.712 36.352C186.928 35.904 186.144 35.576 185.36 35.368C184.576 35.144 183.808 35.032 183.056 35.032C182.304 35.032 181.688 35.12 181.208 35.296C180.728 35.472 180.384 35.704 180.176 35.992C179.968 36.264 179.864 36.584 179.864 36.952C179.864 37.384 180.04 37.736 180.392 38.008C180.744 38.264 181.208 38.472 181.784 38.632C182.36 38.792 182.992 38.952 183.68 39.112C184.384 39.272 185.08 39.456 185.768 39.664C186.472 39.872 187.112 40.152 187.688 40.504C188.264 40.856 188.728 41.32 189.08 41.896C189.448 42.472 189.632 43.2 189.632 44.08C189.632 45.024 189.368 45.888 188.84 46.672C188.312 47.456 187.52 48.088 186.464 48.568C185.424 49.048 184.104 49.288 182.504 49.288ZM193.423 53.848C192.751 53.848 192.087 53.744 191.431 53.536C190.775 53.328 190.239 53.04 189.822 52.672L191.191 50.008C191.479 50.264 191.807 50.464 192.175 50.608C192.559 50.752 192.935 50.824 193.303 50.824C193.831 50.824 194.247 50.696 194.551 50.44C194.871 50.2 195.159 49.792 195.415 49.216L196.087 47.632L196.375 47.224L201.007 36.088H204.607L198.775 49.792C198.359 50.832 197.879 51.648 197.335 52.24C196.807 52.832 196.215 53.248 195.559 53.488C194.919 53.728 194.207 53.848 193.423 53.848ZM195.631 49.504L189.87 36.088H193.735L198.199 46.888L195.631 49.504ZM213.982 35.896C215.006 35.896 215.918 36.104 216.718 36.52C217.534 36.92 218.174 37.544 218.638 38.392C219.102 39.224 219.334 40.296 219.334 41.608V49H215.59V42.184C215.59 41.144 215.358 40.376 214.894 39.88C214.446 39.384 213.806 39.136 212.974 39.136C212.382 39.136 211.846 39.264 211.366 39.52C210.902 39.76 210.534 40.136 210.262 40.648C210.006 41.16 209.878 41.816 209.878 42.616V49H206.134V36.088H209.71V39.664L209.038 38.584C209.502 37.72 210.166 37.056 211.03 36.592C211.894 36.128 212.878 35.896 213.982 35.896ZM229.062 49.192C227.67 49.192 226.43 48.912 225.342 48.352C224.254 47.776 223.398 46.984 222.774 45.976C222.166 44.968 221.862 43.824 221.862 42.544C221.862 41.248 222.166 40.104 222.774 39.112C223.398 38.104 224.254 37.32 225.342 36.76C226.43 36.184 227.67 35.896 229.062 35.896C230.422 35.896 231.606 36.184 232.614 36.76C233.622 37.32 234.366 38.128 234.846 39.184L231.942 40.744C231.606 40.136 231.182 39.688 230.67 39.4C230.174 39.112 229.63 38.968 229.038 38.968C228.398 38.968 227.822 39.112 227.31 39.4C226.798 39.688 226.39 40.096 226.086 40.624C225.798 41.152 225.654 41.792 225.654 42.544C225.654 43.296 225.798 43.936 226.086 44.464C226.39 44.992 226.798 45.4 227.31 45.688C227.822 45.976 228.398 46.12 229.038 46.12C229.63 46.12 230.174 45.984 230.67 45.712C231.182 45.424 231.606 44.968 231.942 44.344L234.846 45.928C234.366 46.968 233.622 47.776 232.614 48.352C231.606 48.912 230.422 49.192 229.062 49.192Z" fill="#1ED760"/>
<defs>
<clipPath id="clip0_111_309">
<rect width="80" height="80" fill="white"/>
</clipPath>
</defs>
</svg>
