<svg width="202" height="170" viewBox="0 0 202 170" fill="none" xmlns="http://www.w3.org/2000/svg">
<path fill-rule="evenodd" clip-rule="evenodd" d="M157.709 -147.882C147.64 -132.797 135.501 -112.494 134.476 -92.0335C134.155 -85.6311 134.922 -79.2116 137.181 -72.9318C137.056 -68.1221 137.561 -63.3089 138.867 -58.5587C138.831 -58.078 138.801 -57.5972 138.777 -57.1162C138.594 -53.4727 138.764 -49.8237 139.36 -46.198C139.103 -44.3875 138.925 -42.5723 138.834 -40.7558C138.806 -40.1941 138.786 -39.6322 138.775 -39.0704C129.696 -24.8023 120.299 -7.02954 119.403 10.8645C118.889 21.1044 121.159 31.3879 127.864 41.0733C134.566 50.7563 145.687 59.8217 162.841 67.6501C202.797 85.8848 235.504 80.6382 260.654 76.6037C262.989 76.2291 265.259 75.8649 267.464 75.531C280.46 73.5626 291.105 72.6599 299.475 76.7429C307.821 80.8148 313.991 89.8967 317.872 108.138L318.452 108.036C314.561 89.7464 308.339 80.4481 299.746 76.2556C291.175 72.0744 280.332 73.0233 267.364 74.9874C265.16 75.3212 262.893 75.6848 260.562 76.0585L260.556 76.0595L260.552 76.0601C235.408 80.0923 202.875 85.3093 163.097 67.156C146.014 59.36 134.989 50.3549 128.36 40.778C121.732 31.2034 119.485 21.0376 119.993 10.8952C120.866 -6.524 129.865 -23.8621 138.764 -37.9652C138.764 -37.6362 138.768 -37.3073 138.774 -36.9784C138.611 -36.2844 138.459 -35.5891 138.317 -34.8927C132.583 -23.8612 128.004 -11.6947 127.392 0.5283C126.879 10.7681 129.148 21.0517 135.853 30.737C142.555 40.4201 153.676 49.4854 170.83 57.3139C210.787 75.5486 243.493 70.3019 268.643 66.2675C270.978 65.8929 273.248 65.5287 275.453 65.1947C288.449 63.2263 299.094 62.3236 307.464 66.4067C315.81 70.4785 321.981 79.5605 325.861 97.8019L326.441 97.6997C322.551 79.4101 316.328 70.1119 307.735 65.9194C299.164 61.7381 288.321 62.687 275.353 64.6512C273.146 64.9854 270.876 65.3496 268.541 65.7239C243.397 69.756 210.864 74.973 171.086 56.8198C154.003 49.0238 142.978 40.0187 136.349 30.4417C129.722 20.8672 127.474 10.7013 127.983 0.558947C128.557 -10.9049 132.651 -22.3337 137.92 -32.8284C135.405 -25.9259 133.686 -18.7875 133.328 -11.6297C132.815 -1.38984 135.085 8.89368 141.789 18.5791C148.491 28.2621 159.612 37.3275 176.766 45.1559C216.723 63.3906 249.429 58.1439 274.579 54.1095L274.584 54.1088L274.595 54.1068L274.603 54.1056L274.607 54.1049L274.622 54.1026C276.942 53.7305 279.198 53.3687 281.389 53.0367C294.385 51.0683 305.03 50.1657 313.4 54.2487C321.747 58.3206 327.917 67.4025 331.797 85.6439L332.377 85.5417C328.487 67.2521 322.265 57.9539 313.671 53.7614C305.1 49.5801 294.257 50.529 281.289 52.4932C279.082 52.8275 276.812 53.1916 274.477 53.5659L274.477 53.5659C249.333 57.5981 216.8 62.815 177.023 44.6618C159.94 36.8658 148.914 27.8607 142.285 18.2838C135.658 8.7092 133.41 -1.45667 133.919 -11.599C134.224 -17.7005 135.527 -23.792 137.473 -29.738C137.3 -28.3224 137.175 -26.9044 137.104 -25.4856C136.591 -15.2458 138.861 -4.96224 145.565 4.72315C152.268 14.4062 163.388 23.4716 180.542 31.3C220.499 49.5347 253.205 44.288 278.355 40.2536L278.358 40.2532C280.692 39.8787 282.962 39.5147 285.166 39.1808C298.161 37.2124 308.807 36.3097 317.176 40.3928C325.523 44.4646 331.693 53.5466 335.573 71.788L336.154 71.6858C332.263 53.3962 326.041 44.098 317.447 39.9055C308.876 35.7242 298.033 36.6731 285.065 38.6373C282.859 38.9715 280.588 39.3357 278.254 39.71C253.109 43.7421 220.577 48.9591 180.799 30.8059C163.716 23.0099 152.691 14.0048 146.061 4.42784C139.434 -5.14671 137.187 -15.3126 137.695 -25.455C137.817 -27.888 138.097 -30.3194 138.514 -32.7407C138.65 -33.1124 138.788 -33.4835 138.928 -33.8538C139.565 -25.9247 142.097 -18.0561 147.295 -10.547C153.997 -0.863984 165.118 8.2014 182.272 16.0298C222.229 34.2645 254.935 29.0179 280.085 24.9834L280.088 24.983C282.422 24.6085 284.691 24.2445 286.895 23.9107C299.891 21.9423 310.537 21.0396 318.906 25.1226C327.253 29.1945 333.423 38.2764 337.303 56.5179L337.883 56.4156C333.993 38.1261 327.771 28.8278 319.177 24.6354C310.606 20.4541 299.763 21.403 286.795 23.3671C284.594 23.7005 282.33 24.0636 280.002 24.4368L279.994 24.4382L279.99 24.4387L279.983 24.4398C254.839 28.472 222.307 33.689 182.529 15.5358C165.446 7.73973 154.42 -1.26539 147.791 -10.8423C142.377 -18.6643 139.886 -26.8809 139.433 -35.157C139.763 -35.9942 140.105 -36.8276 140.456 -37.6568C140.69 -38.0841 140.926 -38.5096 141.162 -38.933C142.533 -34.8548 144.521 -30.832 147.238 -26.9075C153.94 -17.2245 165.061 -8.15908 182.215 -0.330683C222.172 17.904 254.878 12.6574 280.028 8.62295L280.035 8.62176C282.368 8.24757 284.636 7.88382 286.838 7.55021C299.834 5.5818 310.479 4.6791 318.849 8.76215C327.196 12.834 333.366 21.9159 337.246 40.1574L337.826 40.0551C333.936 21.7656 327.714 12.4673 319.12 8.27486C310.549 4.0936 299.706 5.0425 286.738 7.00665C284.533 7.34062 282.264 7.70444 279.932 8.07847L279.928 8.07914L279.926 8.07936C254.782 12.1115 222.249 17.3285 182.472 -0.82472C165.389 -8.62076 154.363 -17.6259 147.734 -27.2028C144.93 -31.2533 142.911 -35.4097 141.552 -39.6254C142.642 -41.5556 143.757 -43.444 144.88 -45.2842C145.144 -44.8797 145.415 -44.4761 145.693 -44.0736C152.396 -34.3906 163.517 -25.3252 180.671 -17.4968C220.627 0.737898 253.334 -4.50876 278.483 -8.54318L278.485 -8.54347C280.82 -8.91803 283.09 -9.28209 285.294 -9.61594C298.289 -11.5843 308.935 -12.487 317.304 -8.404C325.651 -4.33213 331.821 4.74979 335.702 22.9913L336.282 22.889C332.391 4.59946 326.169 -4.69883 317.575 -8.89127C309.004 -13.0725 298.161 -12.1236 285.194 -10.1595C282.989 -9.82552 280.72 -9.46169 278.388 -9.08766L278.383 -9.087L278.382 -9.08677C253.238 -5.05463 220.705 0.162335 180.927 -17.9909C163.844 -25.7869 152.819 -34.792 146.19 -44.3689C145.853 -44.8546 145.528 -45.3418 145.215 -45.8305C146.836 -48.4713 148.471 -51.0105 150.067 -53.4286C156.729 -46.8984 165.823 -40.7659 177.914 -35.248C217.871 -17.0133 250.577 -22.2599 275.727 -26.2944C278.062 -26.669 280.332 -27.0332 282.537 -27.3671C295.533 -29.3355 306.178 -30.2382 314.548 -26.1552C322.895 -22.0833 329.065 -13.0014 332.945 5.24009L333.525 5.13784C329.635 -13.1517 323.413 -22.45 314.819 -26.6424C306.248 -30.8237 295.405 -29.8748 282.437 -27.9106C280.23 -27.5764 277.96 -27.2123 275.625 -26.8379C250.481 -22.8058 217.948 -17.5888 178.171 -35.742C166.064 -41.267 157 -47.3991 150.387 -53.9117C150.635 -54.2864 150.882 -54.6581 151.128 -55.0268L150.625 -55.3205C150.406 -54.9927 150.187 -54.6625 149.966 -54.3299C149.753 -54.5442 149.542 -54.7588 149.333 -54.9739C151.899 -59.3118 154.544 -63.4081 157.065 -67.1847L156.561 -67.4784C154.072 -63.7493 151.457 -59.7014 148.914 -55.4111C148.244 -56.1162 147.601 -56.8256 146.986 -57.5388C151.184 -66.1253 156.221 -74.1199 160.841 -81.0407L160.338 -81.3344C155.764 -74.4826 150.764 -66.5547 146.572 -58.0245C145.607 -59.1681 144.711 -60.3215 143.881 -61.4836C148.521 -74.3475 155.972 -86.4248 162.571 -96.3108L162.067 -96.6045C155.54 -86.8258 148.144 -74.855 143.468 -62.0699L143.433 -62.1201C142.391 -63.626 141.457 -65.1464 140.625 -66.6792C144.145 -83.6413 154.033 -99.966 162.514 -112.671L162.01 -112.965C153.649 -100.439 143.861 -84.3158 140.194 -67.4917C139.249 -69.316 138.446 -71.1569 137.775 -73.0105C137.786 -73.4243 137.802 -73.838 137.823 -74.2517C138.84 -94.5552 150.898 -114.749 160.969 -129.837L160.466 -130.131C150.441 -115.113 138.365 -94.9237 137.247 -74.5552C135.396 -80.3003 134.774 -86.1555 135.067 -92.0029C136.084 -112.306 148.141 -132.5 158.213 -147.589L157.709 -147.882ZM140.235 -40.2693C139.92 -39.1567 139.63 -38.04 139.366 -36.92L139.367 -36.8777C139.55 -37.2166 139.733 -37.5543 139.918 -37.8909C140.214 -38.5888 140.517 -39.2837 140.826 -39.9753C140.741 -40.2503 140.658 -40.5256 140.579 -40.8011C140.464 -40.6244 140.349 -40.4471 140.235 -40.2693ZM141.004 -41.4552C141.065 -41.233 141.129 -41.0109 141.194 -40.7891C141.715 -41.9329 142.254 -43.0674 142.807 -44.1915C142.211 -43.2965 141.609 -42.3841 141.004 -41.4552ZM143.073 -44.7294C143.389 -45.366 143.71 -45.9991 144.035 -46.6286C143.669 -47.2312 143.319 -47.8357 142.985 -48.4423C142.19 -46.3924 141.462 -44.3201 140.816 -42.2312C141.428 -43.1667 142.036 -44.0847 142.636 -44.9842L143.073 -44.7294ZM139.685 -40.4906C139.848 -41.0664 140.018 -41.6411 140.194 -42.2145C140.018 -42.9054 139.858 -43.5976 139.714 -44.2908C139.582 -43.1033 139.484 -41.9144 139.425 -40.7251C139.413 -40.4967 139.403 -40.2683 139.395 -40.0399C139.491 -40.1905 139.588 -40.3408 139.685 -40.4906ZM144.53 -45.8296C144.053 -45.0509 143.578 -44.2633 143.105 -43.4673C143.526 -44.3331 143.956 -45.193 144.394 -46.0464C144.439 -45.9741 144.484 -45.9018 144.53 -45.8296ZM149.646 -53.8458C148.076 -51.4706 146.467 -48.9755 144.867 -46.3789C144.812 -46.4677 144.757 -46.5565 144.702 -46.6454C146.09 -49.3223 147.547 -51.934 149.033 -54.4653C149.235 -54.2584 149.439 -54.0519 149.646 -53.8458ZM148.612 -54.9012C147.954 -55.5898 147.321 -56.2827 146.714 -56.9794C145.476 -54.4164 144.314 -51.8018 143.262 -49.1484C143.606 -48.5072 143.968 -47.8682 144.347 -47.2314C145.717 -49.8577 147.151 -52.4191 148.612 -54.9012ZM142.619 -49.1203C141.863 -47.199 141.164 -45.257 140.535 -43.2993C140.311 -44.2637 140.119 -45.2305 139.958 -46.1991C140.247 -48.2211 140.635 -50.2376 141.109 -52.2435C141.568 -51.1975 142.071 -50.1562 142.619 -49.1203ZM146.297 -57.4632C145.085 -54.9661 143.943 -52.4186 142.903 -49.8324C142.329 -50.9455 141.809 -52.0646 141.339 -53.1891C141.98 -55.7566 142.758 -58.3055 143.646 -60.8252C144.467 -59.6954 145.35 -58.5744 146.297 -57.4632ZM143.228 -61.4077C143.13 -61.5466 143.033 -61.6856 142.937 -61.8248C142.027 -63.1392 141.199 -64.4647 140.448 -65.7995C139.984 -63.4099 139.649 -61.0087 139.464 -58.6042C139.881 -57.099 140.38 -55.6004 140.965 -54.1105C141.605 -56.5647 142.368 -59.0002 143.228 -61.4077ZM140.721 -53.1524C140.207 -54.3943 139.754 -55.6424 139.358 -56.8954C139.222 -53.9852 139.314 -51.0734 139.672 -48.1745C139.961 -49.8399 140.313 -51.5001 140.721 -53.1524ZM140.006 -66.6033C139.578 -64.515 139.247 -62.4167 139.026 -60.314C138.158 -63.9918 137.761 -67.7045 137.754 -71.4217C138.401 -69.8045 139.149 -68.1974 140.006 -66.6033ZM109.684 19.4846C110.709 -0.976319 122.848 -21.2787 132.917 -36.3641L133.42 -36.0704C123.349 -20.9817 111.292 -0.78825 110.274 19.5153C109.766 29.6576 112.013 39.8235 118.641 49.398C125.27 58.975 136.295 67.9801 153.378 75.7761C193.156 93.9293 225.689 88.7124 250.833 84.6802C253.168 84.3059 255.438 83.9418 257.645 83.6075C270.613 81.6433 281.456 80.6944 290.027 84.8757C298.62 89.0682 304.843 98.3664 308.733 116.656L308.153 116.758C304.273 98.5168 298.102 89.4349 289.756 85.363C281.386 81.2799 270.741 82.1826 257.745 84.151C255.54 84.485 253.27 84.8492 250.935 85.2238C225.785 89.2582 193.079 94.5049 153.122 76.2702C135.968 68.4418 124.847 59.3764 118.145 49.6934C111.44 40.008 109.17 29.7245 109.684 19.4846ZM121.898 -29.1606C111.828 -14.0751 99.6893 6.22724 98.6641 26.6882C98.151 36.928 100.421 47.2115 107.125 56.8969C113.828 66.5799 124.948 75.6453 142.102 83.4737C182.059 101.708 214.765 96.4618 239.915 92.4274C242.251 92.0527 244.521 91.6886 246.726 91.3546C259.721 89.3862 270.367 88.4835 278.736 92.5665C287.083 96.6384 293.253 105.72 297.133 123.962L297.714 123.86C293.823 105.57 287.601 96.2717 279.007 92.0793C270.436 87.898 259.593 88.8469 246.625 90.811C244.419 91.1452 242.149 91.5093 239.815 91.8835L239.814 91.8838C214.669 95.9159 182.137 101.133 142.359 82.9797C125.276 75.1836 114.251 66.1785 107.621 56.6016C100.994 47.027 98.7467 36.8612 99.2549 26.7188C100.272 6.41531 112.329 -13.7781 122.401 -28.8669L121.898 -29.1606ZM86.7621 32.8632C87.7874 12.4023 99.9265 -7.9001 109.996 -22.9856L110.499 -22.6919C100.427 -7.6031 88.3704 12.5903 87.353 32.8938C86.8448 43.0362 89.092 53.2021 95.7195 62.7766C102.349 72.3535 113.374 81.3587 130.457 89.1547C170.235 107.308 202.767 102.091 227.912 98.0588L227.916 98.0581L227.922 98.0572C230.253 97.6834 232.52 97.3198 234.724 96.9861C247.691 95.0219 258.534 94.073 267.105 98.2543C275.699 102.447 281.921 111.745 285.812 130.035L285.231 130.137C281.351 111.895 275.181 102.813 266.834 98.7416C258.465 94.6585 247.819 95.5612 234.824 97.5296C232.632 97.8615 230.376 98.2233 228.056 98.5955L228.042 98.5978L228.037 98.5985L228.03 98.5997L228.018 98.6016L228.013 98.6024C202.864 102.637 170.157 107.883 130.2 89.6487C113.047 81.8203 101.926 72.755 95.2231 63.0719C88.5189 53.3865 86.2491 43.103 86.7621 32.8632ZM97.5681 -17.4547C87.4989 -2.36925 75.3598 17.9331 74.3346 38.394C73.8215 48.6339 76.0914 58.9174 82.7955 68.6028C89.4981 78.2858 100.619 87.3512 117.773 95.1796C157.729 113.414 190.436 108.168 215.586 104.133C217.921 103.759 220.191 103.394 222.396 103.06C235.392 101.092 246.037 100.189 254.407 104.272C262.753 108.344 268.924 117.426 272.804 135.668L273.384 135.565C269.493 117.276 263.271 107.978 254.678 103.785C246.107 99.6038 235.264 100.553 222.296 102.517C220.089 102.851 217.818 103.215 215.484 103.59C190.34 107.622 157.807 112.839 118.029 94.6855C100.946 86.8895 89.921 77.8844 83.2919 68.3075C76.6644 58.7329 74.4172 48.567 74.9254 38.4247C75.9428 18.1212 87.9999 -2.07225 98.0713 -17.161L97.5681 -17.4547ZM61.6552 43.6088C62.6804 23.1479 74.8195 2.84552 84.8888 -12.24L85.392 -11.9463C75.3205 3.14252 63.2634 23.3359 62.246 43.6394C61.7378 53.7818 63.9851 63.9477 70.6125 73.5222C77.2416 83.0992 88.267 92.1043 105.35 99.9003C145.128 118.054 177.661 112.837 202.805 108.804L202.809 108.804L202.815 108.803C205.146 108.429 207.413 108.065 209.617 107.732C222.584 105.768 233.427 104.819 241.998 109C250.592 113.192 256.814 122.491 260.705 140.78L260.124 140.882C256.244 122.641 250.074 113.559 241.727 109.487C233.358 105.404 222.712 106.307 209.717 108.275C207.514 108.609 205.246 108.973 202.914 109.347L202.906 109.348C177.757 113.382 145.05 118.629 105.093 100.394C87.9396 92.5659 76.8187 83.5006 70.1162 73.8175C63.412 64.1322 61.1421 53.8486 61.6552 43.6088ZM72.1694 -7.07878C62.1001 8.00671 49.961 28.3091 48.9358 48.77C48.4227 59.0098 50.6926 69.2933 57.3968 78.9787C64.0993 88.6617 75.2202 97.7271 92.3741 105.556C132.331 123.79 165.037 118.544 190.187 114.509L190.191 114.508C192.525 114.134 194.794 113.77 196.997 113.436C209.993 111.468 220.638 110.565 229.008 114.648C237.355 118.72 243.525 127.802 247.405 146.044L247.985 145.941C244.095 127.652 237.873 118.354 229.279 114.161C220.708 109.98 209.865 110.929 196.897 112.893C194.693 113.227 192.425 113.59 190.094 113.964L190.089 113.965L190.085 113.966C164.941 117.998 132.409 123.215 92.6305 105.061C75.5476 97.2655 64.5222 88.2603 57.8931 78.6834C51.2657 69.1089 49.0184 58.943 49.5266 48.8006C50.544 28.4971 62.6011 8.3037 72.6726 -6.78507L72.1694 -7.07878ZM36.3279 54.0761C37.3532 33.6152 49.4922 13.3129 59.5615 -1.77263L60.0647 -1.47892C49.9932 13.6098 37.9361 33.8033 36.9188 54.1068C36.4106 64.2491 38.6578 74.415 45.2853 83.9896C51.9144 93.5665 62.9397 102.572 80.0227 110.368C119.801 128.521 152.333 123.304 177.478 119.272L177.483 119.271C179.815 118.897 182.084 118.533 184.289 118.199C197.257 116.235 208.1 115.286 216.671 119.467C225.265 123.66 231.487 132.958 235.377 151.248L234.797 151.35C230.917 133.108 224.747 124.026 216.4 119.955C208.031 115.871 197.385 116.774 184.389 118.743C182.186 119.076 179.917 119.44 177.583 119.815L177.582 119.815L177.579 119.815C152.429 123.85 119.723 129.096 79.7662 110.862C62.6123 103.033 51.4915 93.9679 44.7889 84.2849C38.0847 74.5995 35.8148 64.316 36.3279 54.0761ZM47.1851 3.82233C37.1159 18.9078 24.9768 39.2102 23.9515 59.6711C23.4384 69.9109 25.7083 80.1945 32.4125 89.8798C39.1151 99.5629 50.2359 108.628 67.3899 116.457C107.346 134.691 140.053 129.445 165.203 125.41C167.538 125.036 169.808 124.671 172.013 124.338C185.009 122.369 195.654 121.466 204.024 125.549C212.37 129.621 218.541 138.703 222.421 156.945L223.001 156.842C219.11 138.553 212.888 129.255 204.295 125.062C195.724 120.881 184.881 121.83 171.913 123.794C169.706 124.128 167.435 124.492 165.101 124.867C139.957 128.899 107.424 134.116 67.6463 115.963C50.5633 108.167 39.538 99.1614 32.9089 89.5845C26.2814 80.01 24.0342 69.8441 24.5424 59.7017C25.5597 39.3982 37.6169 19.2048 47.6883 4.11604L47.1851 3.82233ZM11.8919 65.6541C12.9172 45.1932 25.0562 24.8908 35.1255 9.80534L35.6287 10.099C25.5572 25.1878 13.5001 45.3812 12.4828 65.6847C11.9746 75.8271 14.2218 85.993 20.8493 95.5675C27.4784 105.144 38.5037 114.15 55.5867 121.946C95.3647 140.099 127.897 134.882 153.042 130.85L153.047 130.849C155.379 130.475 157.648 130.111 159.853 129.777C172.821 127.813 183.664 126.864 192.235 131.045C200.829 135.238 207.051 144.536 210.941 162.825L210.361 162.928C206.481 144.686 200.311 135.604 191.964 131.532C183.595 127.449 172.949 128.352 159.953 130.321C157.755 130.653 155.492 131.016 153.164 131.39L153.149 131.392L153.143 131.393C127.993 135.428 95.2869 140.674 55.3302 122.44C38.1763 114.611 27.0555 105.546 20.3529 95.8628C13.6487 86.1775 11.3788 75.8939 11.8919 65.6541ZM23.4424 16.2418C13.3732 31.3273 1.23409 51.6296 0.208854 72.0905C-0.304235 82.3304 1.96565 92.6139 8.66985 102.299C15.3724 111.982 26.4933 121.048 43.6472 128.876C83.6038 147.111 116.31 141.864 141.46 137.83L141.461 137.829C143.796 137.455 146.066 137.091 148.27 136.757C161.266 134.789 171.912 133.886 180.281 137.969C188.628 142.041 194.798 151.123 198.678 169.364L199.258 169.262C195.368 150.972 189.146 141.674 180.552 137.482C171.981 133.3 161.138 134.249 148.17 136.213C145.964 136.548 143.693 136.912 141.359 137.286L141.358 137.286C116.214 141.318 83.6816 146.535 43.9036 128.382C26.8206 120.586 15.7953 111.581 9.1662 102.004C2.53873 92.4294 0.291508 82.2636 0.799708 72.1212C1.81706 51.8177 13.8742 31.6243 23.9456 16.5355L23.4424 16.2418Z" fill="url(#paint0_radial_30_47)" fill-opacity="0.58"/>
<defs>
<radialGradient id="paint0_radial_30_47" cx="0" cy="0" r="1" gradientUnits="userSpaceOnUse" gradientTransform="translate(146.375 52.4073) rotate(33.312) scale(155.973 157.648)">
<stop stop-color="white"/>
<stop offset="1" stop-color="#1E1E1E" stop-opacity="0"/>
<stop offset="1" stop-color="#0E0E35" stop-opacity="0"/>
<stop offset="1" stop-color="white" stop-opacity="0"/>
</radialGradient>
</defs>
</svg>
